<?xml version="1.0" encoding="utf-8"?>
<!-- Generator: Adobe Illustrator 23.0.1, SVG Export Plug-In . SVG Version: 6.00 Build 0)  -->
<svg version="1.1" id="Capa_1" xmlns="http://www.w3.org/2000/svg" xmlns:xlink="http://www.w3.org/1999/xlink" x="0px" y="0px"
	 viewBox="0 0 1280 1024" style="enable-background:new 0 0 1280 1024;" xml:space="preserve">
<style type="text/css">
	.st0{fill:url(#SVGID_1_);}
	.st1{opacity:0.2;}
	.st2{fill:#333333;}
	.st3{fill:#804D38;}
	.st4{fill:#603813;}
	.st5{fill:url(#SVGID_2_);}
	.st6{fill:#956717;}
	.st7{fill:url(#SVGID_3_);}
	.st8{fill:url(#SVGID_4_);}
	.st9{fill:url(#SVGID_5_);}
	.st10{fill:url(#SVGID_6_);}
	.st11{fill:url(#SVGID_7_);}
	.st12{fill:url(#SVGID_8_);}
	.st13{fill:url(#SVGID_9_);}
	.st14{fill:url(#SVGID_10_);}
	.st15{fill:url(#SVGID_11_);}
	.st16{fill:url(#SVGID_12_);}
	.st17{fill:url(#SVGID_13_);}
	.st18{fill:url(#SVGID_14_);}
	.st19{fill:url(#SVGID_15_);}
	.st20{fill:url(#SVGID_16_);}
	.st21{fill:url(#SVGID_17_);}
	.st22{fill:url(#SVGID_18_);}
	.st23{fill:url(#SVGID_19_);}
	.st24{fill:url(#SVGID_20_);}
	.st25{fill:url(#SVGID_21_);}
	.st26{fill:url(#SVGID_22_);}
	.st27{fill:url(#SVGID_23_);}
	.st28{fill:url(#SVGID_24_);}
	.st29{fill:url(#SVGID_25_);}
	.st30{fill:url(#SVGID_26_);}
	.st31{fill:url(#SVGID_27_);}
	.st32{fill:url(#SVGID_28_);}
</style>
<g>
	<linearGradient id="SVGID_1_" gradientUnits="userSpaceOnUse" x1="72.7014" y1="1355.1416" x2="948.316" y2="421.4934">
		<stop  offset="0" style="stop-color:#C69C6D;stop-opacity:0.8"/>
		<stop  offset="0.9832" style="stop-color:#C69C6D"/>
	</linearGradient>
	<path class="st0" d="M1280,904c-107.01-58.21-346-169.47-667-163C322.49,746.86,105.98,846.3,0,904c0-101,0-202,0-303
		c50.21-65,103.73-110.5,154-143c433.81-280.52,1078.61,113.23,1126,143C1280,702,1280,803,1280,904z"/>
</g>
<g class="st1">
	
		<rect x="133.7" y="489.93" transform="matrix(0.8233 0.5676 -0.5676 0.8233 357.4356 -22.401)" class="st2" width="162" height="146"/>
	
		<rect x="290.47" y="545.27" transform="matrix(0.8233 0.5676 -0.5676 0.8233 403.0268 -58.1853)" class="st2" width="9" height="146"/>
	
		<rect x="239.67" y="527.56" transform="matrix(-0.5676 0.8233 -0.8233 -0.5676 857.4474 702.7757)" class="st2" width="9" height="98"/>
	
		<rect x="257.83" y="501.22" transform="matrix(-0.5676 0.8233 -0.8233 -0.5676 864.2267 646.5225)" class="st2" width="9" height="98"/>
	
		<rect x="220.91" y="489.37" transform="matrix(0.8233 0.5676 -0.5676 0.8233 338.0109 -35.1145)" class="st2" width="9" height="72"/>
	
		<rect x="129.93" y="434.59" transform="matrix(0.8233 0.5676 -0.5676 0.8233 311.8445 13.3833)" class="st2" width="9" height="146"/>
	<path class="st2" d="M145.46,698.6c0,0-69.7-191.37-107.91-195.85c-38.21-4.48,33.03-8.4,33.03-8.4l26.75-18.41
		c0,0-9.7,52.83-5.58,55.67c4.12,2.84,44.5-18.74,44.5-18.74l15.98,68.93l40.02-19.78l-12.17,51.13l69.94-2.8l44.08,1.24
		l-68.15,47.76l56.41-14.88l-25.13,36.45l79.76-27.61l-34.62,50.22l-36.9,18.29l-63.51-36.49L145.46,698.6z"/>
</g>
<path class="st3" d="M432,432"/>
<path class="st3" d="M157,458"/>
<rect x="146" y="388" class="st4" width="23" height="5"/>
<g class="st1">
	<g>
		<path class="st2" d="M1062.26,756.12l13.82,12.18c-24.09,17.84-51.04,40.84-77.84,70.1c-32.9,35.91-56.61,71.47-73.61,101.74
			c-4.61-4.06-9.21-8.12-13.82-12.18c19.92-30.86,44.95-64.82,76.27-99.4C1012.72,800.25,1038.28,776.27,1062.26,756.12z"/>
		
			<rect x="1036.8" y="781.14" transform="matrix(-0.7502 -0.6612 0.6612 -0.7502 1311.3146 2060.8557)" class="st2" width="16.3" height="3.17"/>
		
			<rect x="1025.97" y="790.21" transform="matrix(-0.7502 -0.6612 0.6612 -0.7502 1286.3741 2069.5664)" class="st2" width="16.3" height="3.17"/>
		
			<rect x="1011.37" y="803.56" transform="matrix(-0.7502 -0.6612 0.6612 -0.7502 1251.9924 2083.2783)" class="st2" width="16.3" height="3.17"/>
		
			<rect x="1001.06" y="814.99" transform="matrix(-0.7502 -0.6612 0.6612 -0.7502 1225.1462 2095.9993)" class="st2" width="14.88" height="3.17"/>
		
			<rect x="987.52" y="829.28" transform="matrix(-0.7502 -0.6612 0.6612 -0.7502 1192.0057 2112.0544)" class="st2" width="14.88" height="3.17"/>
		
			<rect x="977.03" y="841.18" transform="matrix(-0.7502 -0.6612 0.6612 -0.7502 1165.7802 2125.947)" class="st2" width="14.88" height="3.17"/>
	</g>
	<g>
		<path class="st2" d="M916.09,960.53c0,0,18.74,5.53,20.53,4.57c1.79-0.96,4.11-17.52,5.26-19.9c1.15-2.37,45.3,28.99,45.3,28.99
			l-6.16-40.17l30.24,18.2l-4.3-36.4c0,0-17-2.66-18.93-6.9c-1.93-4.24-15.87-49.51-14.81-48.57c1.06,0.94-2.31,48.71-4.55,45.89
			c-2.24-2.82-19.56-32.46-20.79-26.78c-1.23,5.68,2.66,26.87,2.17,28.55c-0.49,1.69-21.33-17.53-23.74-13.73
			c-2.41,3.8,5.21,35.89-3.07,30.28c-8.28-5.61-20.87-23.47-23.39-20.62c-2.52,2.86,0.65,33.56,0.65,33.56l-12.56,2.46l5.29,16.5
			L916.09,960.53z"/>
		<path class="st2" d="M927.37,943.22c0,0,13.74-11.5,13.81-13.59c0.07-2.09-12.59-15.01-14.01-17.53
			c-1.42-2.51,46.23-17.37,46.23-17.37l-36.46-21.79l29.9-12.37l-32.42-20.79c0,0-10.51,12-14.98,10.73
			c-4.47-1.26-48.98-20.16-47.68-20.39c1.3-0.24,39.45,34.36,36.01,34.29s-36.58-5.8-32.44-1.01c4.13,4.79,23.68,15.77,24.84,17.28
			c1.17,1.52-25,5.59-23.01,10.08c1.99,4.48,32.43,19.71,23.72,22.68c-8.71,2.97-29.73,1.26-28.58,5.2
			c1.15,3.94,28.27,21.85,28.27,21.85l-4.07,11.82l16.33,6.72L927.37,943.22z"/>
		<path class="st2" d="M939.28,928.9c0,0-12.69-15.34-14.83-15.72s-14.42,10.25-16.88,11.28s-20.96-48.42-20.96-48.42l-19.65,32.9
			l-14.71-31.49l-18.91,29.04c0,0,12.97,12.21,11.99,16.45c-0.97,4.25-17.1,45.55-17.43,44.23c-0.33-1.32,32.24-33.98,32.42-30.58
			c0.17,3.4-3.34,35.4,1.25,32.01s14.4-21.12,15.87-22.05c1.47-0.93,7.46,25.62,11.89,24.31c4.43-1.31,17.81-29.21,21.45-20.14
			s3.38,29.66,7.31,29.11c3.94-0.55,20.28-24.77,20.28-24.77l12.33,5.8l5.7-15.18L939.28,928.9z"/>
		<path class="st2" d="M911.21,923.42c0,0-14.2,10.97-14.35,13.05c-0.15,2.08,12.09,15.39,13.43,17.94c1.33,2.55-47,15.68-47,15.68
			l35.8,22.97l-30.44,11.27l31.78,21.83c0,0,10.97-11.58,15.41-10.16s48.41,21.78,47.1,21.97c-1.31,0.19-38.34-35.58-34.89-35.39
			c3.45,0.19,36.49,7.05,32.51,2.14c-3.98-4.91-23.19-16.52-24.3-18.07c-1.12-1.55,25.28-4.69,23.45-9.23s-31.83-20.75-22.99-23.41
			s29.87-0.22,28.86-4.18s-27.58-22.74-27.58-22.74l4.51-11.62l-16.14-7.26L911.21,923.42z"/>
	</g>
</g>
<g class="st1">
	<g>
		<path class="st2" d="M944.63,643.94l10.61,23.74c-45.79,10.78-99.13,26.88-156.66,51.42c-70.6,30.12-128.25,64.74-172.91,95.92
			c-3.54-7.91-7.07-15.82-10.61-23.74c49.12-30.4,107.47-62.17,174.95-91.36C845.27,676.02,897.39,657.86,944.63,643.94z"/>
		
			<rect x="890.6" y="667.57" transform="matrix(-0.4081 -0.9129 0.9129 -0.4081 658.5612 1767.0995)" class="st2" width="23" height="5"/>
		
			<rect x="869.29" y="673.81" transform="matrix(-0.4081 -0.9129 0.9129 -0.4081 622.8586 1756.4338)" class="st2" width="23" height="5"/>
		
			<rect x="839.76" y="683.73" transform="matrix(-0.4081 -0.9129 0.9129 -0.4081 572.2329 1743.4399)" class="st2" width="23" height="5"/>
		
			<rect x="817.53" y="693.02" transform="matrix(-0.4081 -0.9129 0.9129 -0.4081 531.0386 1735.3145)" class="st2" width="21" height="5"/>
		
			<rect x="788.82" y="704.76" transform="matrix(-0.4081 -0.9129 0.9129 -0.4081 479.8956 1725.6368)" class="st2" width="21" height="5"/>
		
			<rect x="766" y="714.96" transform="matrix(-0.4081 -0.9129 0.9129 -0.4081 438.4426 1719.1694)" class="st2" width="21" height="5"/>
	</g>
	<g>
		<path class="st2" d="M599.64,837.61c0,0,22.07,17.52,25.22,17.21s17.93-21.16,21.17-23.7s42.42,63.19,42.42,63.19l19.53-56.93
			l29.13,40.65l19.48-50.9c0,0-21.65-12.75-21.36-19.46c0.29-6.7,12.63-74.66,13.45-72.83c0.82,1.83-37.22,63.74-38.35,58.77
			s-4.38-53.91-10.05-46.99s-15.09,37.29-16.94,39.28c-1.85,1.99-17.26-34.94-23.25-31.17c-5.98,3.77-17.86,50.71-25.4,38.74
			c-7.54-11.96-12.48-42.62-17.96-40.17c-5.48,2.45-22.54,45.13-22.54,45.13l-19.1-3.51l-4.21,24.89L599.64,837.61z"/>
		<path class="st2" d="M627.34,820.61c0,0,27.04-7.91,28.61-10.66c1.56-2.75-6.93-26.85-7.14-30.97
			c-0.21-4.12,76.08,1.83,76.08,1.83L689.67,732l50.01-0.32l-30.32-45.29c0,0-22.91,10.32-28.22,6.22
			c-5.31-4.1-53.68-53.4-51.71-53.01c1.96,0.39,30.57,67.19,25.86,65.24s-46.55-27.53-44.17-18.91c2.38,8.62,21.74,33.85,22.3,36.51
			s-38.49-6.07-38.87,0.99c-0.37,7.06,31.1,43.85,16.98,43.1c-14.12-0.75-42.01-14.4-43.17-8.52s23.84,44.46,23.84,44.46
			l-13.89,13.57l17.89,17.8L627.34,820.61z"/>
		<path class="st2" d="M653.81,807.95c0,0-6.84-27.33-9.53-29c-2.69-1.67-27.1,5.87-31.23,5.91c-4.12,0.04,4.83-75.95,4.83-75.95
			l-50.16,33.26l1.65-49.98l-46.45,28.52c0,0,9.41,23.3,5.1,28.44c-4.31,5.14-55.48,51.53-55.01,49.58
			c0.46-1.95,68.34-27.9,66.21-23.27c-2.13,4.63-29.35,45.43-20.64,43.4c8.71-2.03,34.68-20.39,37.36-20.84s-7.58,38.23-0.54,38.88
			c7.04,0.65,45.04-29.35,43.74-15.26c-1.3,14.08-16.05,41.41-10.21,42.8s45.36-22.07,45.36-22.07l13.01,14.41l18.49-17.18
			L653.81,807.95z"/>
		<path class="st2" d="M618.81,785.44c0,0-27.31,6.96-28.96,9.65s5.98,27.08,6.04,31.2c0.06,4.12-75.97-4.51-75.97-4.51l33.48,50.02
			l-49.99-1.44l28.71,46.33c0,0,23.26-9.51,28.42-5.22c5.16,4.29,51.76,55.26,49.82,54.8c-1.95-0.46-28.19-68.22-23.54-66.11
			c4.64,2.11,45.55,29.16,43.48,20.45s-20.53-34.59-21-37.27c-0.46-2.68,38.26,7.42,38.88,0.38c0.62-7.04-29.54-44.92-15.45-43.67
			c14.09,1.25,41.47,15.88,42.84,10.03c1.37-5.84-22.26-45.27-22.26-45.27l14.36-13.07l-17.25-18.42L618.81,785.44z"/>
	</g>
</g>
<g class="st1">
	<g>
		<path class="st2" d="M707.63,490.94l10.61,23.74c-45.79,10.78-99.13,26.88-156.66,51.42c-70.6,30.12-128.25,64.74-172.91,95.92
			c-3.54-7.91-7.07-15.82-10.61-23.74c49.12-30.4,107.47-62.17,174.95-91.36C608.27,523.02,660.39,504.86,707.63,490.94z"/>
		
			<rect x="653.6" y="514.57" transform="matrix(-0.4081 -0.9129 0.9129 -0.4081 464.5077 1335.2921)" class="st2" width="23" height="5"/>
		
			<rect x="632.29" y="520.81" transform="matrix(-0.4081 -0.9129 0.9129 -0.4081 428.8051 1324.6265)" class="st2" width="23" height="5"/>
		
			<rect x="602.76" y="530.73" transform="matrix(-0.4081 -0.9129 0.9129 -0.4081 378.1795 1311.6326)" class="st2" width="23" height="5"/>
		
			<rect x="580.53" y="540.02" transform="matrix(-0.4081 -0.9129 0.9129 -0.4081 336.9851 1303.5071)" class="st2" width="21" height="5"/>
		
			<rect x="551.82" y="551.76" transform="matrix(-0.4081 -0.9129 0.9129 -0.4081 285.8421 1293.8293)" class="st2" width="21" height="5"/>
		
			<rect x="529" y="561.96" transform="matrix(-0.4081 -0.9129 0.9129 -0.4081 244.3891 1287.3619)" class="st2" width="21" height="5"/>
	</g>
	<g>
		<path class="st2" d="M362.64,684.61c0,0,22.07,17.52,25.22,17.21c3.15-0.31,17.93-21.16,21.17-23.7s42.42,63.19,42.42,63.19
			l19.53-56.93l29.13,40.65l19.48-50.9c0,0-21.65-12.75-21.36-19.46c0.29-6.7,12.63-74.66,13.45-72.83
			c0.82,1.83-37.22,63.74-38.35,58.77s-4.38-53.91-10.05-46.99c-5.67,6.92-15.09,37.29-16.94,39.28
			c-1.85,1.99-17.26-34.94-23.25-31.17c-5.98,3.77-17.86,50.71-25.4,38.74c-7.54-11.96-12.48-42.62-17.96-40.17
			c-5.48,2.45-22.54,45.13-22.54,45.13l-19.1-3.51l-4.21,24.89L362.64,684.61z"/>
		<path class="st2" d="M390.34,667.61c0,0,27.04-7.91,28.61-10.66s-6.93-26.85-7.14-30.97c-0.21-4.12,76.08,1.83,76.08,1.83
			L452.67,579l50.01-0.32l-30.32-45.29c0,0-22.91,10.32-28.22,6.22c-5.31-4.1-53.68-53.4-51.72-53.01
			c1.96,0.39,30.57,67.19,25.86,65.24s-46.55-27.53-44.17-18.91c2.38,8.62,21.74,33.85,22.3,36.51s-38.49-6.07-38.87,0.99
			c-0.37,7.06,31.1,43.85,16.98,43.1c-14.12-0.75-42.01-14.4-43.17-8.52s23.84,44.46,23.84,44.46l-13.89,13.57l17.89,17.8
			L390.34,667.61z"/>
		<path class="st2" d="M416.81,654.95c0,0-6.84-27.33-9.53-29c-2.69-1.67-27.1,5.87-31.23,5.91s4.83-75.95,4.83-75.95l-50.16,33.26
			l1.65-49.98l-46.45,28.52c0,0,9.41,23.3,5.1,28.44c-4.31,5.14-55.48,51.53-55.01,49.58s68.34-27.9,66.21-23.27
			c-2.13,4.63-29.35,45.43-20.64,43.4c8.71-2.03,34.68-20.39,37.36-20.84c2.68-0.45-7.58,38.23-0.54,38.88
			c7.04,0.65,45.04-29.35,43.74-15.26c-1.3,14.08-16.05,41.41-10.21,42.8s45.36-22.07,45.36-22.07l13.01,14.41l18.49-17.18
			L416.81,654.95z"/>
		<path class="st2" d="M381.81,632.44c0,0-27.31,6.96-28.96,9.65s5.98,27.08,6.04,31.2c0.06,4.12-75.97-4.51-75.97-4.51l33.48,50.02
			l-49.99-1.44l28.71,46.33c0,0,23.26-9.51,28.42-5.22c5.16,4.29,51.76,55.26,49.82,54.8c-1.95-0.46-28.19-68.22-23.54-66.11
			c4.64,2.11,45.55,29.16,43.48,20.45s-20.53-34.59-21-37.27c-0.46-2.68,38.26,7.42,38.88,0.38c0.62-7.04-29.54-44.92-15.45-43.67
			c14.09,1.25,41.47,15.88,42.84,10.03s-22.26-45.27-22.26-45.27l14.36-13.07l-17.25-18.42L381.81,632.44z"/>
	</g>
</g>
<g class="st1">
	<g>
		<path class="st2" d="M372.63,655.94l10.61,23.74c-45.79,10.78-99.13,26.88-156.66,51.42c-70.6,30.12-128.25,64.74-172.91,95.92
			c-3.54-7.91-7.07-15.82-10.61-23.74c49.12-30.4,107.47-62.17,174.95-91.36C273.27,688.02,325.39,669.86,372.63,655.94z"/>
		
			<rect x="318.6" y="679.57" transform="matrix(-0.4081 -0.9129 0.9129 -0.4081 -157.8517 1261.8082)" class="st2" width="23" height="5"/>
		
			<rect x="297.29" y="685.81" transform="matrix(-0.4081 -0.9129 0.9129 -0.4081 -193.5543 1251.1426)" class="st2" width="23" height="5"/>
		
			<rect x="267.76" y="695.73" transform="matrix(-0.4081 -0.9129 0.9129 -0.4081 -244.1799 1238.1486)" class="st2" width="23" height="5"/>
		
			<rect x="245.53" y="705.02" transform="matrix(-0.4081 -0.9129 0.9129 -0.4081 -285.3742 1230.0231)" class="st2" width="21" height="5"/>
		
			<rect x="216.82" y="716.76" transform="matrix(-0.4081 -0.9129 0.9129 -0.4081 -336.5173 1220.3455)" class="st2" width="21" height="5"/>
		
			<rect x="194" y="726.96" transform="matrix(-0.4081 -0.9129 0.9129 -0.4081 -377.9703 1213.8781)" class="st2" width="21" height="5"/>
	</g>
	<g>
		<path class="st2" d="M27.64,849.61c0,0,22.07,17.52,25.22,17.21s17.93-21.16,21.17-23.7s42.42,63.19,42.42,63.19l19.53-56.93
			l29.13,40.65l19.48-50.9c0,0-21.65-12.75-21.36-19.46c0.29-6.7,12.63-74.66,13.45-72.83c0.82,1.83-37.22,63.74-38.35,58.77
			s-4.38-53.91-10.05-46.99c-5.67,6.92-15.09,37.29-16.94,39.28c-1.85,1.99-17.26-34.94-23.25-31.17
			c-5.98,3.77-17.86,50.71-25.4,38.74c-7.54-11.96-12.48-42.62-17.96-40.17c-5.48,2.45-22.54,45.13-22.54,45.13l-19.1-3.51
			l-4.21,24.89L27.64,849.61z"/>
		<path class="st2" d="M55.34,832.61c0,0,27.04-7.91,28.61-10.66s-6.93-26.85-7.14-30.97s76.08,1.83,76.08,1.83L117.67,744
			l50.01-0.32l-30.32-45.29c0,0-22.91,10.32-28.22,6.22c-5.31-4.1-53.68-53.4-51.72-53.01c1.96,0.39,30.57,67.19,25.86,65.24
			S36.73,689.3,39.1,697.92c2.38,8.62,21.74,33.85,22.3,36.51s-38.49-6.07-38.87,0.99c-0.37,7.06,31.1,43.85,16.98,43.1
			C25.39,777.77-2.5,764.12-3.66,770s23.84,44.46,23.84,44.46L6.29,828.03l17.89,17.8L55.34,832.61z"/>
		<path class="st2" d="M81.81,819.95c0,0-6.84-27.33-9.53-29c-2.69-1.67-27.1,5.87-31.23,5.91s4.83-75.95,4.83-75.95l-50.16,33.26
			l1.65-49.98l-46.45,28.52c0,0,9.41,23.3,5.1,28.44c-4.31,5.14-55.48,51.53-55.01,49.58c0.46-1.95,68.34-27.9,66.21-23.27
			c-2.13,4.63-29.35,45.43-20.64,43.4s34.68-20.39,37.36-20.84s-7.58,38.23-0.54,38.88c7.04,0.65,45.04-29.35,43.74-15.26
			c-1.3,14.08-16.05,41.41-10.21,42.8s45.36-22.07,45.36-22.07l13.01,14.41l18.49-17.18L81.81,819.95z"/>
		<path class="st2" d="M46.81,797.44c0,0-27.31,6.96-28.96,9.65s5.98,27.08,6.04,31.2c0.06,4.12-75.97-4.51-75.97-4.51l33.48,50.02
			l-49.99-1.44l28.71,46.33c0,0,23.26-9.51,28.42-5.22c5.16,4.29,51.76,55.26,49.82,54.8s-28.19-68.22-23.54-66.11
			c4.64,2.11,45.55,29.16,43.48,20.45c-2.07-8.7-20.53-34.59-21-37.27c-0.46-2.68,38.26,7.42,38.88,0.38
			c0.62-7.04-29.54-44.92-15.45-43.67c14.09,1.25,41.47,15.88,42.84,10.03c1.37-5.84-22.26-45.27-22.26-45.27l14.36-13.07
			L78.4,785.33L46.81,797.44z"/>
	</g>
</g>
<g class="st1">
	<g>
		<path class="st2" d="M147.63,605.94l10.61,23.74c-45.79,10.78-99.13,26.88-156.66,51.42c-70.6,30.12-128.25,64.74-172.91,95.92
			c-3.54-7.91-7.07-15.82-10.61-23.74c49.12-30.4,107.47-62.17,174.95-91.36C48.27,638.02,100.39,619.86,147.63,605.94z"/>
		
			<rect x="93.6" y="629.57" transform="matrix(-0.4081 -0.9129 0.9129 -0.4081 -429.038 985.9945)" class="st2" width="23" height="5"/>
		
			<rect x="72.29" y="635.81" transform="matrix(-0.4081 -0.9129 0.9129 -0.4081 -464.7406 975.3289)" class="st2" width="23" height="5"/>
		
			<rect x="42.76" y="645.73" transform="matrix(-0.4081 -0.9129 0.9129 -0.4081 -515.3662 962.3349)" class="st2" width="23" height="5"/>
		
			<rect x="20.53" y="655.02" transform="matrix(-0.4081 -0.9129 0.9129 -0.4081 -556.5605 954.2094)" class="st2" width="21" height="5"/>
		
			<rect x="-8.18" y="666.76" transform="matrix(-0.4081 -0.9129 0.9129 -0.4081 -607.7036 944.5317)" class="st2" width="21" height="5"/>
		
			<rect x="-31" y="676.96" transform="matrix(-0.4081 -0.9129 0.9129 -0.4081 -649.1566 938.0643)" class="st2" width="21" height="5"/>
	</g>
	<g>
		<path class="st2" d="M-197.36,799.61c0,0,22.07,17.52,25.22,17.21s17.93-21.16,21.17-23.7s42.42,63.19,42.42,63.19l19.53-56.93
			l29.13,40.65l19.48-50.9c0,0-21.65-12.75-21.36-19.46c0.29-6.7,12.63-74.66,13.45-72.83c0.82,1.83-37.22,63.74-38.35,58.77
			s-4.38-53.91-10.05-46.99c-5.67,6.92-15.09,37.29-16.94,39.28c-1.85,1.99-17.26-34.94-23.25-31.17
			c-5.98,3.77-17.86,50.71-25.4,38.74c-7.54-11.96-12.48-42.62-17.96-40.17c-5.48,2.45-22.54,45.13-22.54,45.13l-19.1-3.51
			l-4.21,24.89L-197.36,799.61z"/>
		<path class="st2" d="M-169.66,782.61c0,0,27.04-7.91,28.61-10.66c1.56-2.75-6.93-26.85-7.14-30.97s76.08,1.83,76.08,1.83
			L-107.33,694l50.01-0.32l-30.32-45.29c0,0-22.91,10.32-28.22,6.22c-5.31-4.1-53.68-53.4-51.72-53.01s30.57,67.19,25.86,65.24
			c-4.71-1.95-46.55-27.53-44.17-18.91c2.38,8.62,21.74,33.85,22.3,36.51c0.55,2.66-38.49-6.07-38.87,0.99
			c-0.37,7.06,31.1,43.85,16.98,43.1c-14.12-0.75-42.01-14.4-43.17-8.52c-1.16,5.89,23.84,44.46,23.84,44.46l-13.89,13.57
			l17.89,17.8L-169.66,782.61z"/>
		<path class="st2" d="M-143.19,769.95c0,0-6.84-27.33-9.53-29c-2.69-1.67-27.1,5.87-31.23,5.91s4.83-75.95,4.83-75.95l-50.16,33.26
			l1.65-49.98l-46.45,28.52c0,0,9.41,23.3,5.1,28.44c-4.31,5.14-55.48,51.53-55.01,49.58c0.46-1.95,68.34-27.9,66.21-23.27
			c-2.13,4.63-29.35,45.43-20.64,43.4c8.71-2.03,34.68-20.39,37.36-20.84s-7.58,38.23-0.54,38.88c7.04,0.65,45.04-29.35,43.74-15.26
			c-1.3,14.08-16.05,41.41-10.21,42.8s45.36-22.07,45.36-22.07l13.01,14.41l18.49-17.18L-143.19,769.95z"/>
		<path class="st2" d="M-178.19,747.44c0,0-27.31,6.96-28.96,9.65s5.98,27.08,6.04,31.2c0.06,4.12-75.97-4.51-75.97-4.51
			l33.48,50.02l-49.99-1.44l28.71,46.33c0,0,23.26-9.51,28.42-5.22c5.16,4.29,51.76,55.26,49.82,54.8
			c-1.95-0.46-28.19-68.22-23.54-66.11c4.64,2.11,45.55,29.16,43.48,20.45s-20.53-34.59-21-37.27c-0.46-2.68,38.26,7.42,38.88,0.38
			c0.62-7.04-29.54-44.92-15.45-43.67c14.09,1.25,41.47,15.88,42.84,10.03c1.37-5.84-22.26-45.27-22.26-45.27l14.36-13.07
			l-17.25-18.42L-178.19,747.44z"/>
	</g>
</g>
<g>
	<linearGradient id="SVGID_2_" gradientUnits="userSpaceOnUse" x1="161" y1="473" x2="323" y2="473">
		<stop  offset="0" style="stop-color:#4D3803"/>
		<stop  offset="0.9832" style="stop-color:#3D2E20"/>
	</linearGradient>
	<rect x="161" y="400" class="st5" width="162" height="146"/>
	<rect x="335" y="400" class="st6" width="9" height="146"/>
	<rect x="269.5" y="429.5" transform="matrix(6.123234e-17 -1 1 6.123234e-17 -204.5 752.5)" class="st6" width="9" height="98"/>
	<rect x="269.5" y="461.5" transform="matrix(6.123234e-17 -1 1 6.123234e-17 -236.5 784.5)" class="st6" width="9" height="98"/>
	<rect x="225" y="474" class="st6" width="9" height="72"/>
	<rect x="140" y="400" class="st6" width="9" height="146"/>
	<linearGradient id="SVGID_3_" gradientUnits="userSpaceOnUse" x1="51.1037" y1="400" x2="394" y2="400">
		<stop  offset="0" style="stop-color:#C7B299"/>
		<stop  offset="0.4385" style="stop-color:#C7B197"/>
		<stop  offset="0.9832" style="stop-color:#C69C6D"/>
	</linearGradient>
	<path class="st7" d="M262,322c0,0-166,118-200,100s22.43,25.66,22.43,25.66L96,478c0,0,22-49,27-49s26,40.68,26,40.68L201.28,422
		L223,461l19-49l56,42l37,24l-29-78l38,44.27V400l50,68v-61l-20-36l-73-6L262,322z"/>
</g>
<g>
	<g>
		<linearGradient id="SVGID_4_" gradientUnits="userSpaceOnUse" x1="364.7736" y1="504.3976" x2="380.541" y2="469.7127">
			<stop  offset="0" style="stop-color:#754C24"/>
			<stop  offset="0.9832" style="stop-color:#603813"/>
		</linearGradient>
		<path class="st8" d="M380,680h-26c8.85-46.2,15.92-101.47,17-164c1.32-76.74-6.76-143.5-17-197c8.67,0,17.33,0,26,0
			c7.71,57.25,12.9,123.48,12,197C391.27,576.2,386.57,631.18,380,680z"/>
		<rect x="362" y="628" class="st4" width="23" height="5"/>
		<rect x="365" y="606" class="st4" width="23" height="5"/>
		<rect x="368" y="575" class="st4" width="23" height="5"/>
		<rect x="370" y="550" class="st4" width="21" height="5"/>
		<rect x="371" y="519" class="st4" width="21" height="5"/>
		<rect x="371" y="494" class="st4" width="21" height="5"/>
	</g>
	<g>
		<linearGradient id="SVGID_5_" gradientUnits="userSpaceOnUse" x1="251" y1="365.5" x2="414" y2="365.5">
			<stop  offset="0" style="stop-color:#009245"/>
			<stop  offset="0.9832" style="stop-color:#006837"/>
		</linearGradient>
		<path class="st9" d="M344,286c0,0-25,13-26,16s12,25,13,29s-75,12.93-75,12.93L300,385l-49,10l38.52,38.56
			c0,0,20.48-14.56,26.48-11.56s63,42,61,42s-43-60-38-59s51,18,47,10s-27.88-29-28.94-31.5C356,381,396,382,395,375s-39-37-25-39
			s44,6,44,0s-32-39-32-39l11-16l-21-14L344,286z"/>
		<linearGradient id="SVGID_6_" gradientUnits="userSpaceOnUse" x1="344.7332" y1="366.2028" x2="512.6371" y2="366.2028">
			<stop  offset="0" style="stop-color:#009245"/>
			<stop  offset="0.9832" style="stop-color:#006837"/>
		</linearGradient>
		<path class="st10" d="M348.21,318.22c0,0-3.81,27.92-1.94,30.47c1.87,2.55,27.34,4.63,31.19,6.12s-32.73,68.71-32.73,68.71
			l58.93-12.23l-20.11,45.79l53.72-9.2c0,0-0.07-25.13,5.84-28.3c5.91-3.17,70.66-27.21,69.51-25.57
			c-1.15,1.63-73.82,0.49-70.11-3.02c3.7-3.51,44.13-31.26,35.29-32.61c-8.84-1.35-39.77,6.03-42.43,5.45
			c-2.65-0.58,21.25-32.67,14.96-35.89c-6.29-3.22-52.72,10.49-46.28-2.09c6.45-12.59,30.29-32.47,25.39-35.93
			c-4.9-3.46-50.32,3.62-50.32,3.62l-6.72-18.22l-23.55,9.07L348.21,318.22z"/>
		<linearGradient id="SVGID_7_" gradientUnits="userSpaceOnUse" x1="307.0563" y1="270.7218" x2="489.112" y2="270.7218">
			<stop  offset="0" style="stop-color:#009245"/>
			<stop  offset="0.9832" style="stop-color:#006837"/>
		</linearGradient>
		<path class="st11" d="M348.97,347.56c0,0,27.75,4.91,30.37,3.14s5.7-27.14,7.35-30.92c1.64-3.78,67.37,35.41,67.37,35.41
			l-9.9-59.37l44.96,21.9l-7.07-54.04c0,0-25.11-0.92-28.05-6.95c-2.93-6.03-24.4-71.68-22.81-70.46
			c1.59,1.22-2.42,73.78-5.78,69.94c-3.36-3.84-29.5-45.33-31.19-36.55c-1.7,8.78,4.46,39.98,3.78,42.61
			c-0.68,2.63-31.8-22.52-35.27-16.36c-3.47,6.16,8.41,53.1-3.92,46.16s-31.25-31.55-34.9-26.79c-3.65,4.76,1.64,50.42,1.64,50.42
			l-18.47,5.99l8.13,23.89L348.97,347.56z"/>
		<linearGradient id="SVGID_8_" gradientUnits="userSpaceOnUse" x1="222.1499" y1="275.7972" x2="390.9905" y2="275.7972">
			<stop  offset="0" style="stop-color:#009245"/>
			<stop  offset="0.9832" style="stop-color:#006837"/>
		</linearGradient>
		<path class="st12" d="M383.8,324.79c0,0,4.79-27.77,3.01-30.38s-27.16-5.59-30.95-7.22c-3.79-1.63,35.13-67.52,35.13-67.52
			l-59.33,10.14l21.71-45.05l-54.01,7.3c0,0-0.81,25.12-6.83,28.08s-71.57,24.7-70.36,23.11c1.21-1.59,73.79,2.11,69.96,5.49
			c-3.82,3.37-45.21,29.69-36.42,31.35c8.79,1.66,39.96-4.63,42.59-3.96s-22.39,31.9-16.21,35.34c6.18,3.44,53.06-8.63,46.18,3.72
			c-6.89,12.35-31.42,31.38-26.64,35.02c4.77,3.63,50.41-1.85,50.41-1.85l6.07,18.44l23.86-8.23L383.8,324.79z"/>
	</g>
</g>
<g>
	<g>
		<linearGradient id="SVGID_9_" gradientUnits="userSpaceOnUse" x1="141.7736" y1="455.3976" x2="157.541" y2="420.7127">
			<stop  offset="0" style="stop-color:#754C24"/>
			<stop  offset="0.9832" style="stop-color:#603813"/>
		</linearGradient>
		<path class="st13" d="M157,631h-26c8.85-46.2,15.92-101.47,17-164c1.32-76.74-6.76-143.5-17-197c8.67,0,17.33,0,26,0
			c7.71,57.25,12.9,123.48,12,197C168.27,527.2,163.57,582.18,157,631z"/>
		<rect x="139" y="579" class="st4" width="23" height="5"/>
		<rect x="142" y="557" class="st4" width="23" height="5"/>
		<rect x="145" y="526" class="st4" width="23" height="5"/>
		<rect x="147" y="501" class="st4" width="21" height="5"/>
		<rect x="148" y="470" class="st4" width="21" height="5"/>
		<rect x="148" y="445" class="st4" width="21" height="5"/>
	</g>
	<g>
		<linearGradient id="SVGID_10_" gradientUnits="userSpaceOnUse" x1="28" y1="316.5" x2="191" y2="316.5">
			<stop  offset="0" style="stop-color:#009245"/>
			<stop  offset="0.9832" style="stop-color:#006837"/>
		</linearGradient>
		<path class="st14" d="M121,237c0,0-25,13-26,16s12,25,13,29s-75,12.93-75,12.93L77,336l-49,10l38.52,38.56
			C66.52,384.56,87,370,93,373s63,42,61,42s-43-60-38-59s51,18,47,10s-27.88-29-28.94-31.5S173,333,172,326s-39-37-25-39s44,6,44,0
			s-32-39-32-39l11-16l-21-14L121,237z"/>
		<linearGradient id="SVGID_11_" gradientUnits="userSpaceOnUse" x1="121.7332" y1="317.2028" x2="289.6371" y2="317.2028">
			<stop  offset="0" style="stop-color:#009245"/>
			<stop  offset="0.9832" style="stop-color:#006837"/>
		</linearGradient>
		<path class="st15" d="M125.22,269.22c0,0-3.81,27.92-1.94,30.47c1.87,2.55,27.34,4.63,31.19,6.12s-32.73,68.71-32.73,68.71
			l58.93-12.23l-20.11,45.79l53.72-9.2c0,0-0.07-25.13,5.84-28.3c5.91-3.17,70.66-27.21,69.51-25.57
			c-1.15,1.63-73.82,0.49-70.11-3.02c3.7-3.51,44.13-31.26,35.29-32.61c-8.84-1.35-39.77,6.03-42.43,5.45
			c-2.65-0.58,21.25-32.67,14.96-35.89c-6.29-3.22-52.72,10.49-46.28-2.09c6.45-12.59,30.29-32.47,25.39-35.93
			c-4.9-3.46-50.32,3.62-50.32,3.62l-6.72-18.22l-23.55,9.07L125.22,269.22z"/>
		<linearGradient id="SVGID_12_" gradientUnits="userSpaceOnUse" x1="84.0563" y1="221.7218" x2="266.112" y2="221.7218">
			<stop  offset="0" style="stop-color:#009245"/>
			<stop  offset="0.9832" style="stop-color:#006837"/>
		</linearGradient>
		<path class="st16" d="M125.97,298.56c0,0,27.75,4.91,30.37,3.14s5.7-27.14,7.35-30.92c1.64-3.78,67.37,35.41,67.37,35.41
			l-9.9-59.37l44.96,21.9l-7.07-54.04c0,0-25.11-0.92-28.05-6.95c-2.93-6.03-24.4-71.68-22.81-70.46
			c1.59,1.22-2.42,73.78-5.78,69.94c-3.36-3.84-29.5-45.33-31.19-36.55c-1.7,8.78,4.46,39.98,3.78,42.61
			c-0.68,2.63-31.8-22.52-35.27-16.36c-3.47,6.16,8.41,53.1-3.92,46.16c-12.32-6.94-31.25-31.55-34.9-26.79
			c-3.65,4.76,1.64,50.42,1.64,50.42l-18.47,5.99l8.13,23.89L125.97,298.56z"/>
		<linearGradient id="SVGID_13_" gradientUnits="userSpaceOnUse" x1="-0.8501" y1="226.7972" x2="167.9905" y2="226.7972">
			<stop  offset="0" style="stop-color:#009245"/>
			<stop  offset="0.9832" style="stop-color:#006837"/>
		</linearGradient>
		<path class="st17" d="M160.8,275.79c0,0,4.79-27.77,3.01-30.38c-1.78-2.61-27.16-5.59-30.95-7.22
			c-3.79-1.63,35.13-67.52,35.13-67.52l-59.33,10.14l21.71-45.05l-54.01,7.3c0,0-0.81,25.12-6.83,28.08s-71.57,24.7-70.36,23.11
			c1.21-1.59,73.79,2.11,69.96,5.49c-3.82,3.37-45.21,29.69-36.42,31.35s39.96-4.63,42.59-3.96c2.63,0.67-22.39,31.9-16.21,35.34
			c6.18,3.44,53.06-8.63,46.18,3.72c-6.89,12.35-31.42,31.38-26.64,35.02c4.77,3.63,50.41-1.85,50.41-1.85l6.07,18.44l23.86-8.23
			L160.8,275.79z"/>
	</g>
</g>
<g>
	<g>
		
			<linearGradient id="SVGID_14_" gradientUnits="userSpaceOnUse" x1="792.7736" y1="339.3976" x2="808.541" y2="304.7127" gradientTransform="matrix(-1 0 0 1 1504.787 0)">
			<stop  offset="0" style="stop-color:#754C24"/>
			<stop  offset="0.9832" style="stop-color:#603813"/>
		</linearGradient>
		<path class="st18" d="M696.79,515h26c-8.85-46.2-15.92-101.47-17-164c-1.32-76.74,6.76-143.5,17-197c-8.67,0-17.33,0-26,0
			c-7.71,57.25-12.9,123.48-12,197C685.52,411.2,690.21,466.18,696.79,515z"/>
		<rect x="691.79" y="463" transform="matrix(-1 -4.492108e-11 4.492108e-11 -1 1406.574 931)" class="st4" width="23" height="5"/>
		<rect x="688.79" y="441" transform="matrix(-1 -4.492108e-11 4.492108e-11 -1 1400.574 887)" class="st4" width="23" height="5"/>
		<rect x="685.79" y="410" transform="matrix(-1 -4.492108e-11 4.492108e-11 -1 1394.574 825)" class="st4" width="23" height="5"/>
		<rect x="685.79" y="385" transform="matrix(-1 -4.495527e-11 4.495527e-11 -1 1392.574 775)" class="st4" width="21" height="5"/>
		<rect x="684.79" y="354" transform="matrix(-1 -4.491175e-11 4.491175e-11 -1 1390.574 713)" class="st4" width="21" height="5"/>
		<rect x="684.79" y="329" transform="matrix(-1 -4.491175e-11 4.491175e-11 -1 1390.574 663)" class="st4" width="21" height="5"/>
	</g>
	<g>
		
			<linearGradient id="SVGID_15_" gradientUnits="userSpaceOnUse" x1="679" y1="200.5" x2="842" y2="200.5" gradientTransform="matrix(-1 0 0 1 1504.787 0)">
			<stop  offset="0" style="stop-color:#009245"/>
			<stop  offset="0.9832" style="stop-color:#006837"/>
		</linearGradient>
		<path class="st19" d="M732.79,121c0,0,25,13,26,16s-12,25-13,29s75,12.93,75,12.93l-44,41.07l49,10l-38.52,38.56
			c0,0-20.48-14.56-26.48-11.56s-63,42-61,42s43-60,38-59s-51,18-47,10s27.88-29,28.94-31.5s-38.94-1.5-37.94-8.5s39-37,25-39
			s-44,6-44,0s32-39,32-39l-11-16l21-14L732.79,121z"/>
		
			<linearGradient id="SVGID_16_" gradientUnits="userSpaceOnUse" x1="772.7332" y1="201.2028" x2="940.6371" y2="201.2028" gradientTransform="matrix(-1 0 0 1 1504.787 0)">
			<stop  offset="0" style="stop-color:#009245"/>
			<stop  offset="0.9832" style="stop-color:#006837"/>
		</linearGradient>
		<path class="st20" d="M728.57,153.22c0,0,3.81,27.92,1.94,30.47c-1.87,2.55-27.34,4.63-31.19,6.12
			c-3.84,1.49,32.73,68.71,32.73,68.71l-58.93-12.23l20.11,45.79l-53.72-9.2c0,0,0.07-25.13-5.84-28.3
			c-5.91-3.17-70.66-27.21-69.51-25.57c1.15,1.63,73.82,0.49,70.11-3.02c-3.7-3.51-44.13-31.26-35.29-32.61s39.77,6.03,42.43,5.45
			c2.65-0.58-21.25-32.67-14.96-35.89c6.29-3.22,52.72,10.49,46.28-2.09c-6.45-12.59-30.29-32.47-25.39-35.93
			c4.9-3.46,50.32,3.62,50.32,3.62l6.72-18.22l23.55,9.07L728.57,153.22z"/>
		
			<linearGradient id="SVGID_17_" gradientUnits="userSpaceOnUse" x1="735.0563" y1="105.7218" x2="917.112" y2="105.7218" gradientTransform="matrix(-1 0 0 1 1504.787 0)">
			<stop  offset="0" style="stop-color:#009245"/>
			<stop  offset="0.9832" style="stop-color:#006837"/>
		</linearGradient>
		<path class="st21" d="M727.82,182.56c0,0-27.75,4.91-30.37,3.14c-2.62-1.77-5.7-27.14-7.35-30.92s-67.37,35.41-67.37,35.41
			l9.9-59.37l-44.96,21.9l7.07-54.04c0,0,25.11-0.92,28.05-6.95s24.4-71.68,22.81-70.46c-1.59,1.22,2.42,73.78,5.78,69.94
			c3.36-3.84,29.5-45.33,31.19-36.55s-4.46,39.98-3.78,42.61c0.68,2.63,31.8-22.52,35.27-16.36c3.47,6.16-8.41,53.1,3.92,46.16
			c12.32-6.94,31.25-31.55,34.9-26.79c3.65,4.76-1.64,50.42-1.64,50.42l18.47,5.99l-8.13,23.89L727.82,182.56z"/>
		
			<linearGradient id="SVGID_18_" gradientUnits="userSpaceOnUse" x1="650.1499" y1="110.7972" x2="818.9905" y2="110.7972" gradientTransform="matrix(-1 0 0 1 1504.787 0)">
			<stop  offset="0" style="stop-color:#009245"/>
			<stop  offset="0.9832" style="stop-color:#006837"/>
		</linearGradient>
		<path class="st22" d="M692.99,159.79c0,0-4.79-27.77-3.01-30.38c1.78-2.61,27.16-5.59,30.95-7.22
			c3.79-1.63-35.13-67.52-35.13-67.52l59.33,10.14l-21.71-45.05l54.01,7.3c0,0,0.81,25.12,6.83,28.08
			c6.02,2.96,71.57,24.7,70.36,23.11c-1.21-1.59-73.79,2.11-69.96,5.49c3.82,3.37,45.21,29.69,36.42,31.35s-39.96-4.63-42.59-3.96
			s22.39,31.9,16.21,35.34c-6.18,3.44-53.06-8.63-46.18,3.72c6.89,12.35,31.42,31.38,26.64,35.02c-4.77,3.63-50.41-1.85-50.41-1.85
			l-6.07,18.44l-23.86-8.23L692.99,159.79z"/>
	</g>
</g>
<g>
	<g>
		
			<linearGradient id="SVGID_19_" gradientUnits="userSpaceOnUse" x1="930.7736" y1="589.3976" x2="946.541" y2="554.7127" gradientTransform="matrix(-1 0 0 1 1998.787 0)">
			<stop  offset="0" style="stop-color:#754C24"/>
			<stop  offset="0.9832" style="stop-color:#603813"/>
		</linearGradient>
		<path class="st23" d="M1052.79,765h26c-8.85-46.2-15.92-101.47-17-164c-1.32-76.74,6.76-143.5,17-197c-8.67,0-17.33,0-26,0
			c-7.71,57.25-12.9,123.48-12,197C1041.52,661.2,1046.21,716.18,1052.79,765z"/>
		
			<rect x="1047.79" y="713" transform="matrix(-1 -4.492108e-11 4.492108e-11 -1 2118.574 1431)" class="st4" width="23" height="5"/>
		
			<rect x="1044.79" y="691" transform="matrix(-1 -4.492108e-11 4.492108e-11 -1 2112.574 1387)" class="st4" width="23" height="5"/>
		
			<rect x="1041.79" y="660" transform="matrix(-1 -4.492108e-11 4.492108e-11 -1 2106.574 1325)" class="st4" width="23" height="5"/>
		
			<rect x="1041.79" y="635" transform="matrix(-1 -4.486867e-11 4.486867e-11 -1 2104.574 1275)" class="st4" width="21" height="5"/>
		
			<rect x="1040.79" y="604" transform="matrix(-1 -4.495527e-11 4.495527e-11 -1 2102.574 1213)" class="st4" width="21" height="5"/>
		
			<rect x="1040.79" y="579" transform="matrix(-1 -4.495527e-11 4.495527e-11 -1 2102.574 1163)" class="st4" width="21" height="5"/>
	</g>
	<g>
		
			<linearGradient id="SVGID_20_" gradientUnits="userSpaceOnUse" x1="817" y1="450.5" x2="980" y2="450.5" gradientTransform="matrix(-1 0 0 1 1998.787 0)">
			<stop  offset="0" style="stop-color:#009245"/>
			<stop  offset="0.9832" style="stop-color:#006837"/>
		</linearGradient>
		<path class="st24" d="M1088.79,371c0,0,25,13,26,16s-12,25-13,29s75,12.93,75,12.93l-44,41.07l49,10l-38.52,38.56
			c0,0-20.48-14.56-26.48-11.56s-63,42-61,42s43-60,38-59s-51,18-47,10s27.88-29,28.94-31.5s-38.94-1.5-37.94-8.5s39-37,25-39
			s-44,6-44,0s32-39,32-39l-11-16l21-14L1088.79,371z"/>
		
			<linearGradient id="SVGID_21_" gradientUnits="userSpaceOnUse" x1="910.7332" y1="451.2028" x2="1078.6371" y2="451.2028" gradientTransform="matrix(-1 0 0 1 1998.787 0)">
			<stop  offset="0" style="stop-color:#009245"/>
			<stop  offset="0.9832" style="stop-color:#006837"/>
		</linearGradient>
		<path class="st25" d="M1084.57,403.22c0,0,3.81,27.92,1.94,30.47c-1.87,2.55-27.34,4.63-31.19,6.12
			c-3.84,1.49,32.73,68.71,32.73,68.71l-58.93-12.23l20.11,45.79l-53.72-9.2c0,0,0.07-25.13-5.84-28.3
			c-5.91-3.17-70.66-27.21-69.51-25.57c1.15,1.63,73.82,0.49,70.11-3.02c-3.7-3.51-44.13-31.26-35.29-32.61
			c8.84-1.35,39.77,6.03,42.43,5.45c2.65-0.58-21.25-32.67-14.96-35.89c6.29-3.22,52.72,10.49,46.28-2.09
			c-6.45-12.59-30.29-32.47-25.39-35.93s50.32,3.62,50.32,3.62l6.72-18.22l23.55,9.07L1084.57,403.22z"/>
		
			<linearGradient id="SVGID_22_" gradientUnits="userSpaceOnUse" x1="873.0563" y1="355.7218" x2="1055.1119" y2="355.7218" gradientTransform="matrix(-1 0 0 1 1998.787 0)">
			<stop  offset="0" style="stop-color:#009245"/>
			<stop  offset="0.9832" style="stop-color:#006837"/>
		</linearGradient>
		<path class="st26" d="M1083.82,432.56c0,0-27.75,4.91-30.37,3.14c-2.62-1.77-5.7-27.14-7.35-30.92
			c-1.64-3.78-67.37,35.41-67.37,35.41l9.9-59.37l-44.96,21.9l7.07-54.04c0,0,25.11-0.92,28.05-6.95
			c2.93-6.03,24.4-71.68,22.81-70.46c-1.59,1.22,2.42,73.78,5.78,69.94c3.36-3.84,29.5-45.33,31.19-36.55s-4.46,39.98-3.78,42.61
			s31.8-22.52,35.27-16.36c3.47,6.16-8.41,53.1,3.92,46.16c12.32-6.94,31.25-31.55,34.9-26.79c3.65,4.76-1.64,50.42-1.64,50.42
			l18.47,5.99l-8.13,23.89L1083.82,432.56z"/>
		
			<linearGradient id="SVGID_23_" gradientUnits="userSpaceOnUse" x1="788.1499" y1="360.7972" x2="956.9905" y2="360.7972" gradientTransform="matrix(-1 0 0 1 1998.787 0)">
			<stop  offset="0" style="stop-color:#009245"/>
			<stop  offset="0.9832" style="stop-color:#006837"/>
		</linearGradient>
		<path class="st27" d="M1048.99,409.79c0,0-4.79-27.77-3.01-30.38c1.78-2.61,27.16-5.59,30.95-7.22
			c3.79-1.63-35.13-67.52-35.13-67.52l59.33,10.14l-21.71-45.05l54.01,7.3c0,0,0.81,25.12,6.83,28.08
			c6.02,2.96,71.57,24.7,70.36,23.11c-1.21-1.59-73.79,2.11-69.96,5.49s45.21,29.69,36.42,31.35c-8.79,1.66-39.96-4.63-42.59-3.96
			c-2.63,0.67,22.39,31.9,16.21,35.34c-6.18,3.44-53.06-8.63-46.18,3.72c6.89,12.35,31.42,31.38,26.64,35.02
			c-4.77,3.63-50.41-1.85-50.41-1.85l-6.07,18.44l-23.86-8.23L1048.99,409.79z"/>
	</g>
</g>
<g>
	<g>
		
			<linearGradient id="SVGID_24_" gradientUnits="userSpaceOnUse" x1="1052.7736" y1="487.3976" x2="1068.541" y2="452.7127" gradientTransform="matrix(-1 0 0 1 1998.787 0)">
			<stop  offset="0" style="stop-color:#754C24"/>
			<stop  offset="0.9832" style="stop-color:#603813"/>
		</linearGradient>
		<path class="st28" d="M930.79,663h26c-8.85-46.2-15.92-101.47-17-164c-1.32-76.74,6.76-143.5,17-197c-8.67,0-17.33,0-26,0
			c-7.71,57.25-12.9,123.48-12,197C919.52,559.2,924.21,614.18,930.79,663z"/>
		
			<rect x="925.79" y="611" transform="matrix(-1 -4.492108e-11 4.492108e-11 -1 1874.574 1227)" class="st4" width="23" height="5"/>
		
			<rect x="922.79" y="589" transform="matrix(-1 -4.492108e-11 4.492108e-11 -1 1868.574 1183)" class="st4" width="23" height="5"/>
		
			<rect x="919.79" y="558" transform="matrix(-1 -4.492108e-11 4.492108e-11 -1 1862.574 1121)" class="st4" width="23" height="5"/>
		
			<rect x="919.79" y="533" transform="matrix(-1 -4.486867e-11 4.486867e-11 -1 1860.574 1071)" class="st4" width="21" height="5"/>
		
			<rect x="918.79" y="502" transform="matrix(-1 -4.495527e-11 4.495527e-11 -1 1858.574 1009)" class="st4" width="21" height="5"/>
		<rect x="918.79" y="477" transform="matrix(-1 -4.495527e-11 4.495527e-11 -1 1858.574 959)" class="st4" width="21" height="5"/>
	</g>
	<g>
		
			<linearGradient id="SVGID_25_" gradientUnits="userSpaceOnUse" x1="939" y1="348.5" x2="1102" y2="348.5" gradientTransform="matrix(-1 0 0 1 1998.787 0)">
			<stop  offset="0" style="stop-color:#009245"/>
			<stop  offset="0.9832" style="stop-color:#006837"/>
		</linearGradient>
		<path class="st29" d="M966.79,269c0,0,25,13,26,16s-12,25-13,29s75,12.93,75,12.93l-44,41.07l49,10l-38.52,38.56
			c0,0-20.48-14.56-26.48-11.56s-63,42-61,42s43-60,38-59s-51,18-47,10s27.88-29,28.94-31.5s-38.94-1.5-37.94-8.5s39-37,25-39
			s-44,6-44,0s32-39,32-39l-11-16l21-14L966.79,269z"/>
		
			<linearGradient id="SVGID_26_" gradientUnits="userSpaceOnUse" x1="1032.7332" y1="349.2028" x2="1200.6371" y2="349.2028" gradientTransform="matrix(-1 0 0 1 1998.787 0)">
			<stop  offset="0" style="stop-color:#009245"/>
			<stop  offset="0.9832" style="stop-color:#006837"/>
		</linearGradient>
		<path class="st30" d="M962.57,301.22c0,0,3.81,27.92,1.94,30.47c-1.87,2.55-27.34,4.63-31.19,6.12s32.73,68.71,32.73,68.71
			l-58.93-12.23l20.11,45.79l-53.72-9.2c0,0,0.07-25.13-5.84-28.3c-5.91-3.17-70.66-27.21-69.51-25.57
			c1.15,1.63,73.82,0.49,70.11-3.02c-3.7-3.51-44.13-31.26-35.29-32.61c8.84-1.35,39.77,6.03,42.43,5.45
			c2.65-0.58-21.25-32.67-14.96-35.89c6.29-3.22,52.72,10.49,46.28-2.09c-6.45-12.59-30.29-32.47-25.39-35.93s50.32,3.62,50.32,3.62
			l6.72-18.22l23.55,9.07L962.57,301.22z"/>
		
			<linearGradient id="SVGID_27_" gradientUnits="userSpaceOnUse" x1="995.0563" y1="253.7218" x2="1177.1119" y2="253.7218" gradientTransform="matrix(-1 0 0 1 1998.787 0)">
			<stop  offset="0" style="stop-color:#009245"/>
			<stop  offset="0.9832" style="stop-color:#006837"/>
		</linearGradient>
		<path class="st31" d="M961.82,330.56c0,0-27.75,4.91-30.37,3.14c-2.62-1.77-5.7-27.14-7.35-30.92
			c-1.64-3.78-67.37,35.41-67.37,35.41l9.9-59.37l-44.96,21.9l7.07-54.04c0,0,25.11-0.92,28.05-6.95
			c2.93-6.03,24.4-71.68,22.81-70.46c-1.59,1.22,2.42,73.78,5.78,69.94c3.36-3.84,29.5-45.33,31.19-36.55
			c1.7,8.78-4.46,39.98-3.78,42.61c0.68,2.63,31.8-22.52,35.27-16.36s-8.41,53.1,3.92,46.16c12.32-6.94,31.25-31.55,34.9-26.79
			c3.65,4.76-1.64,50.42-1.64,50.42l18.47,5.99l-8.13,23.89L961.82,330.56z"/>
		
			<linearGradient id="SVGID_28_" gradientUnits="userSpaceOnUse" x1="910.1499" y1="258.7972" x2="1078.9905" y2="258.7972" gradientTransform="matrix(-1 0 0 1 1998.787 0)">
			<stop  offset="0" style="stop-color:#009245"/>
			<stop  offset="0.9832" style="stop-color:#006837"/>
		</linearGradient>
		<path class="st32" d="M926.99,307.79c0,0-4.79-27.77-3.01-30.38c1.78-2.61,27.16-5.59,30.95-7.22s-35.13-67.52-35.13-67.52
			l59.33,10.14l-21.71-45.05l54.01,7.3c0,0,0.81,25.12,6.83,28.08c6.02,2.96,71.57,24.7,70.36,23.11
			c-1.21-1.59-73.79,2.11-69.96,5.49c3.82,3.37,45.21,29.69,36.42,31.35c-8.79,1.66-39.96-4.63-42.59-3.96s22.39,31.9,16.21,35.34
			c-6.18,3.44-53.06-8.63-46.18,3.72c6.89,12.35,31.42,31.38,26.64,35.02c-4.77,3.63-50.41-1.85-50.41-1.85l-6.07,18.44l-23.86-8.23
			L926.99,307.79z"/>
	</g>
</g>
</svg>
